<svg width="20" height="20" viewBox="0 0 20 20" fill="none" xmlns="http://www.w3.org/2000/svg">
<path d="M13.4917 1.66669H6.50835C3.47502 1.66669 1.66669 3.47502 1.66669 6.50835V13.4834C1.66669 16.525 3.47502 18.3334 6.50835 18.3334H13.4834C16.5167 18.3334 18.325 16.525 18.325 13.4917V6.50835C18.3334 3.47502 16.525 1.66669 13.4917 1.66669ZM8.00002 13.5C8.00002 14.325 7.32502 15 6.50002 15C5.67502 15 5.00002 14.325 5.00002 13.5C5.00002 12.675 5.67502 12 6.50002 12H7.16669C7.62502 12 8.00002 12.375 8.00002 12.8334V13.5ZM8.00002 7.16669C8.00002 7.62502 7.62502 8.00002 7.16669 8.00002H6.50002C5.67502 8.00002 5.00002 7.32502 5.00002 6.50002C5.00002 5.67502 5.67502 5.00002 6.50002 5.00002C7.32502 5.00002 8.00002 5.67502 8.00002 6.50002V7.16669ZM11.7917 11.0417C11.7917 11.45 11.4584 11.7917 11.0417 11.7917H8.95002C8.54169 11.7917 8.20002 11.4584 8.20002 11.0417V8.95002C8.20002 8.54169 8.53335 8.20002 8.95002 8.20002H11.0417C11.45 8.20002 11.7917 8.53335 11.7917 8.95002V11.0417ZM13.5 15C12.675 15 12 14.325 12 13.5V12.8334C12 12.375 12.375 12 12.8334 12H13.5C14.325 12 15 12.675 15 13.5C15 14.325 14.325 15 13.5 15ZM13.5 8.00002H12.8334C12.375 8.00002 12 7.62502 12 7.16669V6.50002C12 5.67502 12.675 5.00002 13.5 5.00002C14.325 5.00002 15 5.67502 15 6.50002C15 7.32502 14.325 8.00002 13.5 8.00002Z" fill="#323232"/>
</svg>
