<svg width="20" height="20" viewBox="0 0 20 20" fill="none" xmlns="http://www.w3.org/2000/svg">
<path d="M18.3333 17.7083H17.5V8.31666C17.5 7.79999 17.2666 7.31666 16.8583 6.99999L15.8333 6.2L15.8166 4.15833C15.8166 3.7 15.4416 3.33333 14.9833 3.33333H12.1416L11.025 2.46666C10.425 1.99166 9.57496 1.99166 8.97496 2.46666L3.14163 6.99999C2.73329 7.31666 2.49996 7.8 2.49996 8.30833L2.45829 17.7083H1.66663C1.32496 17.7083 1.04163 17.9917 1.04163 18.3333C1.04163 18.675 1.32496 18.9583 1.66663 18.9583H18.3333C18.675 18.9583 18.9583 18.675 18.9583 18.3333C18.9583 17.9917 18.675 17.7083 18.3333 17.7083ZM5.41663 10.625V9.375C5.41663 8.91666 5.79163 8.54166 6.24996 8.54166H7.91663C8.37496 8.54166 8.74996 8.91666 8.74996 9.375V10.625C8.74996 11.0833 8.37496 11.4583 7.91663 11.4583H6.24996C5.79163 11.4583 5.41663 11.0833 5.41663 10.625ZM12.0833 17.7083H7.91663V15.4167C7.91663 14.725 8.47496 14.1667 9.16663 14.1667H10.8333C11.525 14.1667 12.0833 14.725 12.0833 15.4167V17.7083ZM14.5833 10.625C14.5833 11.0833 14.2083 11.4583 13.75 11.4583H12.0833C11.625 11.4583 11.25 11.0833 11.25 10.625V9.375C11.25 8.91666 11.625 8.54166 12.0833 8.54166H13.75C14.2083 8.54166 14.5833 8.91666 14.5833 9.375V10.625Z" fill="#323232"/>
</svg>
