<svg width="20" height="20" viewBox="0 0 20 20" fill="none" xmlns="http://www.w3.org/2000/svg">
<path d="M16.1416 4.0751L11.2583 1.9001C10.5416 1.58343 9.4583 1.58343 8.74163 1.9001L3.8583 4.0751C2.62497 4.6251 2.44164 5.3751 2.44164 5.7751C2.44164 6.1751 2.62497 6.9251 3.8583 7.4751L8.74163 9.6501C9.09997 9.80843 9.54997 9.89176 9.99997 9.89176C10.45 9.89176 10.9 9.80843 11.2583 9.6501L16.1416 7.4751C17.375 6.9251 17.5583 6.1751 17.5583 5.7751C17.5583 5.3751 17.3833 4.6251 16.1416 4.0751Z" fill="#323232"/>
<path d="M10 14.2001C9.68336 14.2001 9.3667 14.1334 9.07503 14.0084L3.45836 11.5084C2.60003 11.1251 1.93336 10.1001 1.93336 9.15841C1.93336 8.81675 2.20836 8.54175 2.55003 8.54175C2.8917 8.54175 3.1667 8.81675 3.1667 9.15841C3.1667 9.60841 3.5417 10.1917 3.95836 10.3751L9.57503 12.8751C9.8417 12.9917 10.15 12.9917 10.4167 12.8751L16.0334 10.3751C16.45 10.1917 16.825 9.61675 16.825 9.15841C16.825 8.81675 17.1 8.54175 17.4417 8.54175C17.7834 8.54175 18.0584 8.81675 18.0584 9.15841C18.0584 10.0917 17.3917 11.1251 16.5334 11.5084L10.9167 14.0084C10.6334 14.1334 10.3167 14.2001 10 14.2001Z" fill="#323232"/>
<path d="M10 18.3334C9.68336 18.3334 9.3667 18.2667 9.07503 18.1417L3.45836 15.6417C2.53336 15.2334 1.93336 14.3084 1.93336 13.2917C1.93336 12.95 2.20836 12.675 2.55003 12.675C2.8917 12.675 3.1667 12.95 3.1667 13.2917C3.1667 13.8167 3.47503 14.2917 3.95836 14.5084L9.57503 17.0084C9.8417 17.125 10.15 17.125 10.4167 17.0084L16.0334 14.5084C16.5084 14.3 16.825 13.8167 16.825 13.2917C16.825 12.95 17.1 12.675 17.4417 12.675C17.7834 12.675 18.0584 12.95 18.0584 13.2917C18.0584 14.3084 17.4584 15.225 16.5334 15.6417L10.9167 18.1417C10.6334 18.2667 10.3167 18.3334 10 18.3334Z" fill="#323232"/>
</svg>
