<svg width="16" height="18" viewBox="0 0 16 18" fill="none" xmlns="http://www.w3.org/2000/svg">
<path d="M15.1833 6.04165C14.3083 2.19165 10.95 0.458313 7.99996 0.458313C7.99996 0.458313 7.99996 0.458313 7.99162 0.458313C5.04996 0.458313 1.68329 2.18331 0.808291 6.03331C-0.166709 10.3333 2.46662 13.975 4.84996 16.2666C5.73329 17.1166 6.86662 17.5416 7.99996 17.5416C9.13329 17.5416 10.2666 17.1166 11.1416 16.2666C13.525 13.975 16.1583 10.3416 15.1833 6.04165ZM7.99996 10.2166C6.54996 10.2166 5.37496 9.04165 5.37496 7.59165C5.37496 6.14165 6.54996 4.96665 7.99996 4.96665C9.44996 4.96665 10.625 6.14165 10.625 7.59165C10.625 9.04165 9.44996 10.2166 7.99996 10.2166Z" fill="#A5CE22"/>
</svg>
