<svg width="264" height="80" viewBox="0 0 264 80" fill="none" xmlns="http://www.w3.org/2000/svg">
<path d="M77.0352 32.308C74.9072 32.308 73.0872 31.888 71.5752 31.048C70.0632 30.208 68.8966 29.032 68.0752 27.52C67.2726 25.9893 66.8712 24.188 66.8712 22.116C66.8712 20.0627 67.2726 18.28 68.0752 16.768C68.8966 15.2373 70.0632 14.052 71.5752 13.212C73.0872 12.372 74.9072 11.952 77.0352 11.952C77.9686 11.952 78.9112 12.0733 79.8632 12.316C80.8339 12.5587 81.6739 12.8853 82.3832 13.296C82.9619 13.632 83.3166 14.052 83.4472 14.556C83.5779 15.06 83.5312 15.536 83.3072 15.984C83.1019 16.432 82.7753 16.7493 82.3273 16.936C81.8792 17.1227 81.3752 17.0573 80.8152 16.74C80.2552 16.404 79.6672 16.1613 79.0512 16.012C78.4352 15.8627 77.8099 15.788 77.1752 15.788C75.2899 15.788 73.8619 16.3387 72.8912 17.44C71.9392 18.5227 71.4632 20.0813 71.4632 22.116C71.4632 24.1507 71.9392 25.7187 72.8912 26.82C73.8619 27.9213 75.2899 28.472 77.1752 28.472C77.7726 28.472 78.3792 28.3973 78.9952 28.248C79.6299 28.0987 80.2366 27.8653 80.8152 27.548C81.4126 27.2307 81.9352 27.1653 82.3832 27.352C82.8312 27.52 83.1579 27.8187 83.3633 28.248C83.5872 28.6587 83.6432 29.116 83.5312 29.62C83.4193 30.1053 83.1019 30.5067 82.5792 30.824C81.8699 31.2907 81.0112 31.6547 80.0033 31.916C79.0139 32.1773 78.0246 32.308 77.0352 32.308ZM108.928 32.252C108.312 32.252 107.818 32.112 107.444 31.832C107.09 31.5333 106.8 31.0853 106.576 30.488L100.92 14.584C100.659 13.8747 100.706 13.268 101.06 12.764C101.415 12.26 102.022 12.008 102.88 12.008C103.478 12.008 103.935 12.148 104.252 12.428C104.588 12.708 104.859 13.1467 105.064 13.744L109.096 25.756L113.352 13.772C113.558 13.1747 113.828 12.736 114.164 12.456C114.5 12.1573 114.939 12.008 115.48 12.008C116.003 12.008 116.423 12.1573 116.74 12.456C117.058 12.736 117.328 13.184 117.552 13.8L121.668 25.98L125.868 13.744C126.055 13.1653 126.316 12.736 126.652 12.456C126.988 12.1573 127.446 12.008 128.024 12.008C128.752 12.008 129.284 12.26 129.62 12.764C129.956 13.268 129.994 13.8747 129.732 14.584L124.02 30.516C123.815 31.0947 123.526 31.5333 123.152 31.832C122.798 32.112 122.322 32.252 121.724 32.252C121.127 32.252 120.651 32.112 120.296 31.832C119.942 31.5333 119.652 31.0853 119.428 30.488L115.34 18.896L111.196 30.516C110.972 31.0947 110.683 31.5333 110.328 31.832C109.992 32.112 109.526 32.252 108.928 32.252ZM150.708 32.252C149.998 32.252 149.457 32.056 149.084 31.664C148.71 31.272 148.524 30.7213 148.524 30.012V14.248C148.524 12.7547 149.252 12.008 150.708 12.008C152.145 12.008 152.864 12.7547 152.864 14.248V30.012C152.864 31.5053 152.145 32.252 150.708 32.252ZM181.952 32.308C179.824 32.308 178.004 31.888 176.492 31.048C174.98 30.208 173.813 29.032 172.992 27.52C172.189 25.9893 171.788 24.188 171.788 22.116C171.788 20.0627 172.189 18.28 172.992 16.768C173.813 15.2373 174.98 14.052 176.492 13.212C178.004 12.372 179.824 11.952 181.952 11.952C182.885 11.952 183.828 12.0733 184.78 12.316C185.751 12.5587 186.591 12.8853 187.3 13.296C187.879 13.632 188.233 14.052 188.364 14.556C188.495 15.06 188.448 15.536 188.224 15.984C188.019 16.432 187.692 16.7493 187.244 16.936C186.796 17.1227 186.292 17.0573 185.732 16.74C185.172 16.404 184.584 16.1613 183.968 16.012C183.352 15.8627 182.727 15.788 182.092 15.788C180.207 15.788 178.779 16.3387 177.808 17.44C176.856 18.5227 176.38 20.0813 176.38 22.116C176.38 24.1507 176.856 25.7187 177.808 26.82C178.779 27.9213 180.207 28.472 182.092 28.472C182.689 28.472 183.296 28.3973 183.912 28.248C184.547 28.0987 185.153 27.8653 185.732 27.548C186.329 27.2307 186.852 27.1653 187.3 27.352C187.748 27.52 188.075 27.8187 188.28 28.248C188.504 28.6587 188.56 29.116 188.448 29.62C188.336 30.1053 188.019 30.5067 187.496 30.824C186.787 31.2907 185.928 31.6547 184.92 31.916C183.931 32.1773 182.941 32.308 181.952 32.308Z" fill="#A5CE22"/>
<g clip-path="url(#clip0_164_1560)">
<path d="M32.4072 5.37481C25.0193 -1.79144 12.9807 -1.79144 5.5928 5.37481C-1.85288 12.5971 -1.86425 24.3783 5.55867 31.6146L15.9919 41.7854C16.7897 42.5632 17.8717 43.0001 19 43.0001C20.1283 43.0001 21.2103 42.5632 22.0081 41.7854L32.4413 31.6146C39.8643 24.3783 39.8529 12.5971 32.4072 5.37481ZM15.0727 18.014C15.1536 17.2923 15.4421 16.6075 15.905 16.0387C16.3679 15.4699 16.9862 15.0402 17.6888 14.7992C18.3914 14.5583 19.1495 14.5158 19.8758 14.6768C20.602 14.8377 21.2668 15.1955 21.7935 15.7089C22.3201 16.2223 22.6872 16.8704 22.8523 17.5784C23.0174 18.2864 22.9738 19.0255 22.7267 19.7104C22.4795 20.3953 22.0387 20.9981 21.4552 21.4494C20.8717 21.9006 20.1693 22.1818 19.4289 22.2607C18.8414 22.322 18.2473 22.2543 17.6902 22.0626C17.1331 21.8709 16.6271 21.56 16.2093 21.1527C15.7915 20.7454 15.4726 20.2521 15.2759 19.709C15.0793 19.1659 15.0098 18.5867 15.0727 18.014ZM30.2363 29.465L28.4152 31.2403C25.5161 34.0664 20.5592 32.0648 20.5592 28.068V28.0673C20.5602 27.3097 20.7594 26.5648 21.1379 25.9031C21.5165 25.2414 22.0619 24.6848 22.7226 24.2858C24.0282 23.4973 25.0349 22.3156 25.5903 20.9196C26.1456 19.5236 26.2194 17.9893 25.8006 16.5488C25.3817 15.1082 24.4929 13.8399 23.2686 12.9357C22.0444 12.0315 20.5514 11.5406 19.0155 11.5373C17.4796 11.5341 15.9843 12.0186 14.7561 12.9176C13.5278 13.8165 12.6333 15.0811 12.208 16.5198C11.7826 17.9585 11.8496 19.4932 12.3986 20.8915C12.9477 22.2899 13.9491 23.4758 15.2512 24.2699C15.9165 24.6701 16.4666 25.2286 16.8496 25.893C17.2326 26.5574 17.436 27.3059 17.4408 28.068C17.4408 32.0648 12.4838 34.0664 9.58474 31.2402L7.76373 29.465C1.56807 23.4251 1.56807 13.5975 7.76373 7.5576C10.7461 4.65681 14.7871 3.02771 19 3.02771C23.213 3.02771 27.2539 4.65681 30.2363 7.5576C36.432 13.5975 36.432 23.4251 30.2363 29.465Z" fill="#A5CE22"/>
</g>
<path d="M73.88 43.06L68.48 65.62H65.74L71.14 43.06H73.88ZM77.5266 46.6V52.08H75.5266V46.6H77.5266ZM86.2603 62L82.5003 57.28V62H79.7003V47.2H82.5003V55.62L86.2203 50.92H89.8603L84.9803 56.48L89.9003 62H86.2603ZM106.74 50.92L103.5 62H100.48L98.46 54.26L96.44 62H93.4L90.14 50.92H92.98L94.94 59.36L97.06 50.92H100.02L102.1 59.34L104.06 50.92H106.74ZM113.055 51.08V52.54L111.695 53.12V59.96L113.055 60.5V62H107.615V60.5L109.015 59.96V53.12L107.615 52.54V51.08H113.055ZM121.749 62L117.989 57.28V62H115.189V47.2H117.989V55.62L121.709 50.92H125.349L120.469 56.48L125.389 62H121.749ZM134.368 43.06L128.968 65.62H126.228L131.628 43.06H134.368Z" fill="#A5CE22"/>
<path opacity="0.6" d="M147.335 50.9L145.37 62H143.255L145.22 50.9H147.335ZM150.145 52.7C149.815 52.7 149.55 52.605 149.35 52.415C149.15 52.225 149.05 51.985 149.05 51.695C149.05 51.295 149.2 50.955 149.5 50.675C149.81 50.385 150.17 50.24 150.58 50.24C150.9 50.24 151.16 50.335 151.36 50.525C151.56 50.715 151.66 50.955 151.66 51.245C151.66 51.645 151.51 51.99 151.21 52.28C150.91 52.56 150.555 52.7 150.145 52.7ZM151.015 53.69L149.545 62H147.43L148.9 53.69H151.015ZM155.415 60.065L158.64 53.69H160.905L156.36 62H153.78L152.19 53.69H154.44L155.415 60.065ZM163.299 52.7C162.969 52.7 162.704 52.605 162.504 52.415C162.304 52.225 162.204 51.985 162.204 51.695C162.204 51.295 162.354 50.955 162.654 50.675C162.964 50.385 163.324 50.24 163.734 50.24C164.054 50.24 164.314 50.335 164.514 50.525C164.714 50.715 164.814 50.955 164.814 51.245C164.814 51.645 164.664 51.99 164.364 52.28C164.064 52.56 163.709 52.7 163.299 52.7ZM164.169 53.69L162.699 62H160.584L162.054 53.69H164.169ZM170.849 53.57C171.709 53.57 172.384 53.805 172.874 54.275C173.374 54.735 173.624 55.395 173.624 56.255C173.624 56.575 173.599 56.865 173.549 57.125L172.679 62H170.594L171.404 57.41C171.434 57.23 171.449 57.055 171.449 56.885C171.449 56.385 171.314 56.005 171.044 55.745C170.784 55.485 170.409 55.355 169.919 55.355C169.359 55.355 168.879 55.525 168.479 55.865C168.089 56.195 167.829 56.675 167.699 57.305L166.874 62H164.759L166.229 53.69H168.344L168.164 54.71C168.504 54.36 168.909 54.085 169.379 53.885C169.849 53.675 170.339 53.57 170.849 53.57ZM179.431 53.555C180.051 53.555 180.576 53.68 181.006 53.93C181.446 54.17 181.756 54.485 181.936 54.875L182.146 53.69H184.261L182.791 62.06C182.651 62.83 182.371 63.515 181.951 64.115C181.531 64.725 180.981 65.205 180.301 65.555C179.621 65.915 178.841 66.095 177.961 66.095C176.791 66.095 175.876 65.82 175.216 65.27C174.566 64.72 174.271 63.97 174.331 63.02H176.416C176.456 63.4 176.636 63.7 176.956 63.92C177.286 64.15 177.711 64.265 178.231 64.265C178.851 64.265 179.376 64.08 179.806 63.71C180.246 63.35 180.536 62.8 180.676 62.06L180.901 60.77C180.561 61.16 180.131 61.485 179.611 61.745C179.101 62.005 178.541 62.135 177.931 62.135C177.321 62.135 176.776 62 176.296 61.73C175.826 61.45 175.456 61.06 175.186 60.56C174.926 60.05 174.796 59.46 174.796 58.79C174.796 58.48 174.826 58.155 174.886 57.815C175.036 56.975 175.331 56.23 175.771 55.58C176.221 54.93 176.766 54.43 177.406 54.08C178.046 53.73 178.721 53.555 179.431 53.555ZM181.411 57.845C181.451 57.585 181.471 57.395 181.471 57.275C181.471 56.685 181.296 56.225 180.946 55.895C180.606 55.565 180.176 55.4 179.656 55.4C179.266 55.4 178.886 55.495 178.516 55.685C178.156 55.875 177.841 56.155 177.571 56.525C177.301 56.885 177.121 57.315 177.031 57.815C177.001 58.005 176.986 58.185 176.986 58.355C176.986 58.955 177.156 59.43 177.496 59.78C177.836 60.12 178.266 60.29 178.786 60.29C179.176 60.29 179.556 60.195 179.926 60.005C180.296 59.805 180.611 59.52 180.871 59.15C181.141 58.78 181.321 58.345 181.411 57.845ZM187.602 59.765L185.112 64.01H183.732L185.382 59.765H187.602ZM196.759 50.9L194.794 62H192.679L194.644 50.9H196.759ZM199.569 52.7C199.239 52.7 198.974 52.605 198.774 52.415C198.574 52.225 198.474 51.985 198.474 51.695C198.474 51.295 198.624 50.955 198.924 50.675C199.234 50.385 199.594 50.24 200.004 50.24C200.324 50.24 200.584 50.335 200.784 50.525C200.984 50.715 201.084 50.955 201.084 51.245C201.084 51.645 200.934 51.99 200.634 52.28C200.334 52.56 199.979 52.7 199.569 52.7ZM200.439 53.69L198.969 62H196.854L198.324 53.69H200.439ZM204.838 60.065L208.063 53.69H210.328L205.783 62H203.203L201.613 53.69H203.863L204.838 60.065ZM215.138 53.555C216.198 53.555 217.038 53.85 217.658 54.44C218.278 55.02 218.588 55.805 218.588 56.795C218.588 57.115 218.563 57.4 218.513 57.65C218.453 57.95 218.388 58.21 218.318 58.43H212.243C212.233 58.5 212.228 58.6 212.228 58.73C212.228 59.25 212.378 59.66 212.678 59.96C212.988 60.25 213.393 60.395 213.893 60.395C214.313 60.395 214.673 60.305 214.973 60.125C215.283 59.935 215.533 59.69 215.723 59.39H217.988C217.618 60.19 217.043 60.85 216.263 61.37C215.493 61.88 214.618 62.135 213.638 62.135C212.578 62.135 211.728 61.835 211.088 61.235C210.448 60.635 210.128 59.82 210.128 58.79C210.128 58.49 210.158 58.175 210.218 57.845C210.368 56.985 210.673 56.23 211.133 55.58C211.603 54.93 212.183 54.43 212.873 54.08C213.563 53.73 214.318 53.555 215.138 53.555ZM216.428 57.155C216.448 56.995 216.458 56.88 216.458 56.81C216.458 56.33 216.303 55.955 215.993 55.685C215.683 55.415 215.278 55.28 214.778 55.28C214.248 55.28 213.773 55.45 213.353 55.79C212.933 56.12 212.638 56.575 212.468 57.155H216.428ZM222.026 59.765L219.536 64.01H218.156L219.806 59.765H222.026ZM227.313 57.815C227.463 56.975 227.758 56.23 228.198 55.58C228.648 54.93 229.193 54.43 229.833 54.08C230.473 53.73 231.148 53.555 231.858 53.555C232.478 53.555 232.998 53.68 233.418 53.93C233.848 54.18 234.163 54.495 234.363 54.875L234.573 53.69H236.688L235.218 62H233.103L233.328 60.785C232.998 61.175 232.568 61.5 232.038 61.76C231.518 62.01 230.948 62.135 230.328 62.135C229.718 62.135 229.178 62 228.708 61.73C228.238 61.45 227.873 61.06 227.613 60.56C227.353 60.05 227.223 59.46 227.223 58.79C227.223 58.48 227.253 58.155 227.313 57.815ZM233.838 57.845C233.878 57.585 233.898 57.395 233.898 57.275C233.898 56.685 233.723 56.225 233.373 55.895C233.033 55.565 232.603 55.4 232.083 55.4C231.693 55.4 231.313 55.495 230.943 55.685C230.583 55.875 230.268 56.155 229.998 56.525C229.728 56.885 229.548 57.315 229.458 57.815C229.428 58.005 229.413 58.185 229.413 58.355C229.413 58.955 229.583 59.43 229.923 59.78C230.263 60.12 230.693 60.29 231.213 60.29C231.603 60.29 231.983 60.195 232.353 60.005C232.723 59.805 233.038 59.52 233.298 59.15C233.568 58.78 233.748 58.345 233.838 57.845ZM241.349 50.9L239.384 62H237.269L239.234 50.9H241.349ZM244.158 52.7C243.828 52.7 243.563 52.605 243.363 52.415C243.163 52.225 243.063 51.985 243.063 51.695C243.063 51.295 243.213 50.955 243.513 50.675C243.823 50.385 244.183 50.24 244.593 50.24C244.913 50.24 245.173 50.335 245.373 50.525C245.573 50.715 245.673 50.955 245.673 51.245C245.673 51.645 245.523 51.99 245.223 52.28C244.923 52.56 244.568 52.7 244.158 52.7ZM245.028 53.69L243.558 62H241.443L242.913 53.69H245.028ZM249.428 60.065L252.653 53.69H254.918L250.373 62H247.793L246.203 53.69H248.453L249.428 60.065ZM259.728 53.555C260.788 53.555 261.628 53.85 262.248 54.44C262.868 55.02 263.178 55.805 263.178 56.795C263.178 57.115 263.153 57.4 263.103 57.65C263.043 57.95 262.978 58.21 262.908 58.43H256.833C256.823 58.5 256.818 58.6 256.818 58.73C256.818 59.25 256.968 59.66 257.268 59.96C257.578 60.25 257.983 60.395 258.483 60.395C258.903 60.395 259.263 60.305 259.563 60.125C259.873 59.935 260.123 59.69 260.313 59.39H262.578C262.208 60.19 261.633 60.85 260.853 61.37C260.083 61.88 259.208 62.135 258.228 62.135C257.168 62.135 256.318 61.835 255.678 61.235C255.038 60.635 254.718 59.82 254.718 58.79C254.718 58.49 254.748 58.175 254.808 57.845C254.958 56.985 255.263 56.23 255.723 55.58C256.193 54.93 256.773 54.43 257.463 54.08C258.153 53.73 258.908 53.555 259.728 53.555ZM261.018 57.155C261.038 56.995 261.048 56.88 261.048 56.81C261.048 56.33 260.893 55.955 260.583 55.685C260.273 55.415 259.868 55.28 259.368 55.28C258.838 55.28 258.363 55.45 257.943 55.79C257.523 56.12 257.228 56.575 257.058 57.155H261.018Z" fill="#A5CE22"/>
<defs>
<clipPath id="clip0_164_1560">
<rect width="38" height="43" fill="white"/>
</clipPath>
</defs>
</svg>
