<svg width="20" height="20" viewBox="0 0 20 20" fill="none" xmlns="http://www.w3.org/2000/svg">
<path d="M13.4916 1.66669H6.50829C3.47496 1.66669 1.66663 3.47502 1.66663 6.50835V13.4834C1.66663 16.525 3.47496 18.3334 6.50829 18.3334H13.4833C16.5166 18.3334 18.325 16.525 18.325 13.4917V6.50835C18.3333 3.47502 16.525 1.66669 13.4916 1.66669ZM15.625 8.33335C15.625 8.67502 15.3416 8.95835 15 8.95835C14.6583 8.95835 14.375 8.67502 14.375 8.33335V6.50835L6.50829 14.375H8.33329C8.67496 14.375 8.95829 14.6584 8.95829 15C8.95829 15.3417 8.67496 15.625 8.33329 15.625H4.99996C4.91663 15.625 4.83329 15.6084 4.75829 15.575C4.60829 15.5084 4.48329 15.3917 4.41663 15.2334C4.39163 15.1584 4.37496 15.0834 4.37496 15V11.6667C4.37496 11.325 4.65829 11.0417 4.99996 11.0417C5.34163 11.0417 5.62496 11.325 5.62496 11.6667V13.4917L13.4916 5.62502H11.6666C11.325 5.62502 11.0416 5.34169 11.0416 5.00002C11.0416 4.65835 11.325 4.37502 11.6666 4.37502H15C15.0833 4.37502 15.1583 4.39169 15.2416 4.42502C15.3916 4.49169 15.5166 4.60835 15.5833 4.76669C15.6083 4.84169 15.625 4.91669 15.625 5.00002V8.33335Z" fill="#323232"/>
</svg>
