<svg width="18" height="16" viewBox="0 0 18 16" fill="none" xmlns="http://www.w3.org/2000/svg">
<path d="M16.928 6.39458L2.40516 0.368452C1.79334 0.114554 1.10213 0.226245 0.601328 0.659792C0.100527 1.09341 -0.108935 1.76152 0.0547532 2.40337L1.34742 7.47262H7.67647C7.9677 7.47262 8.20385 7.70873 8.20385 8C8.20385 8.29123 7.96774 8.52737 7.67647 8.52737H1.34742L0.0547532 13.5966C-0.108935 14.2385 0.100492 14.9066 0.601328 15.3402C1.10315 15.7746 1.79443 15.8849 2.4052 15.6315L16.9281 9.6054C17.5893 9.33105 18 8.71588 18 8C18 7.28411 17.5893 6.66891 16.928 6.39458Z" fill="white"/>
</svg>
